<svg fill="#000000" xmlns="http://www.w3.org/2000/svg"  viewBox="0 0 48 48" width="48px" height="48px"><path d="M 37.099609 2.9726562 C 36.716609 2.9509375 36.294078 2.9764063 35.830078 3.0664062 C 32.09405 3.7895992 29.504986 8.1459385 27.908203 11.970703 C 27.414009 11.974056 27.011149 11.97698 26.603516 11.986328 C 27.322387 11.294829 27.908291 10.433504 28.015625 9.390625 C 28.071625 8.840625 27.672047 8.3499688 27.123047 8.2929688 C 26.572047 8.2349688 26.083391 8.6365469 26.025391 9.1855469 C 25.910443 10.313315 24.37474 11.2912 23.335938 11.804688 C 23.364889 11.772924 23.395168 11.745375 23.423828 11.712891 C 24.429157 10.573417 25.243562 8.9906875 25.015625 6.9375 C 24.955625 6.3895 24.465109 5.9886875 23.912109 6.0546875 C 23.363109 6.1156875 22.966344 6.6092031 23.027344 7.1582031 C 23.269899 9.3405204 21.700119 10.795162 20.599609 11.542969 C 20.36043 11.418163 20.1445 11.268869 19.974609 11.070312 L 19.90625 10.988281 C 16.43925 6.9162812 12.834516 4.7112812 9.4785156 4.6132812 C 7.1445156 4.5352812 4.9947187 5.4926406 3.1367188 7.4316406 C 0.68571875 9.9896406 0.17707812 16.66875 1.9550781 22.96875 C 4.2760781 31.18875 9.7908438 37.011031 17.089844 38.957031 C 17.288844 39.096031 17.723172 39.551875 18.076172 39.921875 C 19.648172 41.565875 22.279094 44.315438 26.871094 45.273438 C 27.326094 45.368437 27.941734 45.417969 28.677734 45.417969 C 33.874734 45.417969 45.043094 43.039062 47.496094 38.164062 C 48.320094 36.523063 48.596422 33.941125 45.232422 30.953125 C 44.969422 30.719125 44.870281 30.293062 44.988281 29.914062 C 45.583281 28.009062 46.578781 24.821531 45.550781 21.144531 L 45.482422 20.896484 C 44.96726 19.034841 44.402177 16.986635 41.537109 14.990234 C 42.042726 9.403573 41.386137 5.6904129 39.550781 3.9960938 C 39.045281 3.5295938 38.248609 3.0378125 37.099609 2.9726562 z M 9.2421875 7.6113281 C 9.2911875 7.6113281 9.3406719 7.6112813 9.3886719 7.6132812 C 11.836672 7.6852813 14.759141 9.5755469 17.619141 12.935547 L 17.695312 13.023438 C 19.388313 15.000438 22.002641 15.024922 24.306641 15.044922 L 24.748047 15.048828 C 24.778047 15.049828 24.809844 15.048875 24.839844 15.046875 C 27.337844 14.924875 34.336453 14.816828 36.689453 15.798828 C 41.516453 17.813828 41.990844 19.528266 42.589844 21.697266 L 42.660156 21.951172 C 43.447156 24.773172 42.650047 27.329531 42.123047 29.019531 C 41.650047 30.531531 42.088281 32.169359 43.238281 33.193359 C 45.587281 35.280359 45.006453 36.435453 44.814453 36.814453 C 43.738453 38.954453 39.323906 40.649609 35.128906 41.599609 C 36.404906 39.846609 37.101406 39.079313 38.816406 38.195312 C 37.866406 38.552312 37.191406 37.529297 37.191406 37.529297 C 32.748161 39.822071 30.21283 36.779937 29.808594 36.234375 C 29.834595 36.205598 29.863579 36.180122 29.888672 36.150391 C 31.787672 33.898391 30.126641 30.064766 29.931641 29.634766 C 29.703641 29.133766 29.113375 28.911672 28.609375 29.138672 C 28.106375 29.366672 27.884328 29.957937 28.111328 30.460938 C 28.469328 31.254937 29.285375 33.767328 28.359375 34.861328 C 27.664375 35.682328 25.858344 35.760078 23.277344 35.080078 C 22.745344 34.940078 22.196687 35.257969 22.054688 35.792969 C 21.913688 36.326969 22.233578 36.874625 22.767578 37.015625 C 24.085578 37.363625 25.246953 37.535156 26.251953 37.535156 C 26.816908 37.535156 27.327141 37.476819 27.791016 37.367188 C 28.061919 38.205959 28.280422 38.880113 28.443359 39.384766 C 28.443359 39.384766 29.386672 38.793156 30.263672 39.910156 C 30.989672 39.727156 33.280078 40.087172 34.205078 42.951172 C 34.205078 42.951172 31.615828 47.401781 29.423828 42.425781 C 28.621828 42.457781 27.946375 42.432938 27.484375 42.335938 C 23.803375 41.567937 21.661141 39.328656 20.244141 37.847656 C 19.382141 36.946656 18.760547 36.295125 17.935547 36.078125 C 17.926759 36.075825 17.918933 36.072624 17.910156 36.070312 C 17.909989 36.069998 17.90837 36.070627 17.908203 36.070312 C 17.142888 34.627558 16.361072 32.171201 17.884766 29.552734 C 18.066766 29.237734 18.055187 28.847156 17.867188 28.535156 C 17.681188 28.223156 17.354844 28.063781 16.964844 28.050781 C 16.866844 28.067781 14.820922 28.082047 12.919922 24.748047 C 14.501922 25.159047 16.508875 25.405687 17.796875 24.554688 C 18.357875 24.183688 19.024484 23.447875 19.021484 22.046875 C 19.013484 18.116875 16.878266 13.918844 13.447266 11.089844 C 11.474304 9.4617166 9.2606663 8.4662614 7.0683594 8.1523438 C 7.7618555 7.7940775 8.4814219 7.6113281 9.2421875 7.6113281 z M 31.046875 16.980469 C 28.396951 16.966469 25.421016 18.109016 24.134766 20.587891 C 23.880766 21.078891 24.070547 21.681547 24.560547 21.935547 C 24.708547 22.011547 24.866484 22.048828 25.021484 22.048828 C 25.382484 22.048828 25.731203 21.851813 25.908203 21.507812 C 26.780578 19.828688 29.0569 18.976311 31.052734 18.982422 C 31.337854 18.983295 31.617969 19.001109 31.886719 19.037109 C 32.435719 19.117109 32.937719 18.729641 33.011719 18.181641 C 33.086719 17.634641 32.70325 17.130641 32.15625 17.056641 C 31.796875 17.008016 31.425436 16.982469 31.046875 16.980469 z M 32.521484 26.048828 C 31.693484 26.048828 31.021484 27.726828 31.021484 29.798828 C 31.021484 30.647828 31.138125 31.420828 31.328125 32.048828 L 33.714844 32.048828 C 33.904844 31.419828 34.021484 30.645828 34.021484 29.798828 C 34.021484 27.728828 33.350484 26.048828 32.521484 26.048828 z M 39.207031 26.048828 C 38.716031 26.048828 38.292484 26.543344 38.021484 27.277344 C 38.249484 28.524844 38.545656 29.717031 38.785156 30.597656 C 39.024656 31.478281 39.207031 32.048828 39.207031 32.048828 C 40.036031 32.048828 40.707031 30.703875 40.707031 29.046875 C 40.707031 27.390875 40.034031 26.048828 39.207031 26.048828 z M 37.191406 32.511719 C 34.758406 32.511719 35.974609 33.765625 35.974609 33.765625 L 37.734375 35.580078 C 38.136375 35.995078 38.773516 36.050219 39.228516 35.699219 C 40.596516 34.645219 42.687406 32.511719 37.191406 32.511719 z M 37.800781 32.869141 C 38.436781 32.869141 38.951172 33.047578 38.951172 33.267578 C 38.951172 33.486578 38.436781 33.664062 37.800781 33.664062 C 37.164781 33.664062 36.646484 33.486578 36.646484 33.267578 C 36.646484 33.047578 37.164781 32.869141 37.800781 32.869141 z"/></svg>