<svg fill="#000000" xmlns="http://www.w3.org/2000/svg"  viewBox="0 0 48 48" width="48px" height="48px"><path d="M 15.597656 0.92578125 A 1.50015 1.50015 0 0 0 14.972656 1.0976562 C 11.537173 2.9163815 10.037047 6.6423522 9.6699219 10.074219 C 9.4770504 10.019053 9.2233921 9.9305138 9.0507812 9.8730469 C 8.3359341 9.6350543 7.8854379 9.3819427 7.6386719 9.0703125 A 1.50015 1.50015 0 0 0 4.9648438 9.9140625 C 4.7098139 14.33818 6.1007864 17.439766 7.9960938 19.597656 A 1.5009292 1.5009292 0 0 0 8.0019531 19.603516 L 8.0019531 27.376953 C 8.0019531 27.435771 8.0137362 27.493897 8.0175781 27.552734 C 8.0172493 27.583755 8.0162417 27.937834 8.015625 28.001953 L 7.0019531 28.009766 C 6.4529531 28.013766 6.0097656 28.458812 6.0097656 29.007812 L 6.0039062 34.595703 C 6.0039062 34.862703 6.1088281 35.118641 6.2988281 35.306641 L 8.8457031 37.833984 C 9.1599339 38.73632 9.5769035 39.642604 10.169922 40.544922 L 10.169922 40.546875 C 10.408709 40.909477 10.56661 41.031038 10.820312 41.271484 C 11.074015 41.511931 11.38681 41.787636 11.757812 42.09375 C 12.499819 42.705978 13.466316 43.435112 14.556641 44.146484 C 16.731172 45.565238 19.313018 46.990031 21.929688 46.998047 C 24.571092 47.056757 27.173214 45.614297 29.375 44.181641 C 30.477856 43.464035 31.457649 42.727474 32.210938 42.109375 C 32.587581 41.800326 32.905303 41.521238 33.162109 41.28125 C 33.418916 41.041262 33.578272 40.913003 33.808594 40.585938 L 33.822266 40.566406 L 33.835938 40.546875 C 34.44739 39.617371 34.872975 38.683434 35.189453 37.753906 L 37.679688 35.283203 C 37.869688 35.095203 37.974609 34.839266 37.974609 34.572266 L 37.96875 28.984375 C 37.96875 28.435375 37.525562 27.988375 36.976562 27.984375 L 36.005859 27.978516 L 36.005859 23.867188 C 37.390039 24.8762 38.806164 26.24509 40.007812 28.308594 A 1.50015 1.50015 0 0 0 42.794922 27.724609 C 43.063168 25.38664 43.076623 21.827376 41.431641 18.880859 C 43.681788 17.336632 44.863264 14.86851 45.007812 12.417969 A 1.50015 1.50015 0 0 0 42.904297 10.957031 C 41.723477 11.477529 41.174302 11.392679 40.119141 11.277344 C 39.86984 11.250094 39.51075 11.247329 39.210938 11.224609 C 41.038451 8.7503603 42.52769 6.2123657 42.966797 2.7089844 A 1.50015 1.50015 0 0 0 40.611328 1.2988281 C 38.243611 2.9802621 33.764787 5.5805203 30.095703 6.5371094 C 30.272127 5.2198869 30.545792 4.0751103 30.912109 3.0097656 A 1.50015 1.50015 0 0 0 29.478516 1.0214844 C 25.372067 1.0642987 21.203146 2.7683182 18.039062 5.796875 C 17.639541 4.6374585 17.305949 3.4016421 17.164062 2.2402344 A 1.50015 1.50015 0 0 0 15.597656 0.92578125 z M 11.001953 18.982422 L 25.492188 18.982422 C 25.900413 19.313423 26.324562 19.764258 26.740234 20.291016 L 26.117188 20.865234 C 25.612188 20.529234 24.678609 20.048828 23.474609 20.048828 C 21.572609 20.048828 20.084812 21.338859 20.007812 23.005859 L 18.964844 25.292969 C 18.894844 25.444969 18.913719 25.620813 19.011719 25.757812 C 19.110719 25.895813 19.278031 25.978516 19.457031 25.978516 L 23.072266 25.978516 C 23.953266 25.978516 25.349609 25.408906 25.349609 23.878906 C 25.349609 22.805906 24.673188 22.025391 23.742188 22.025391 C 22.633187 22.025391 22.209625 22.868453 22.140625 23.314453 C 22.098625 23.584453 22.303703 23.835047 22.595703 23.873047 C 22.894703 23.914047 23.160172 23.723125 23.201172 23.453125 C 23.207172 23.408125 23.282188 23.013672 23.742188 23.013672 C 24.093187 23.013672 24.277344 23.448906 24.277344 23.878906 C 24.277344 24.959906 23.083266 24.990234 23.072266 24.990234 C 21.832266 24.990234 21.064453 24.280719 21.064453 23.136719 C 21.064453 22.104719 21.965609 21.037109 23.474609 21.037109 C 24.827609 21.037109 25.766437 21.873859 25.773438 21.880859 C 25.982437 22.073859 26.32325 22.073859 26.53125 21.880859 L 27.351562 21.125 C 28.173745 22.336529 28.859498 23.696191 29.070312 24.640625 A 1.50015 1.50015 0 0 0 31.724609 25.226562 L 33.005859 23.552734 L 33.005859 26.974609 L 11.001953 26.974609 L 11.001953 18.982422 z M 11.007812 29.974609 L 14.095703 29.974609 A 1.5 1.53 0 0 0 15.517578 31.986328 A 1.5 1.53 0 0 0 16.939453 29.974609 L 27.085938 29.974609 A 1.5 1.53 0 0 0 28.498047 32.015625 A 1.5 1.53 0 0 0 29.910156 29.974609 L 33.005859 29.974609 L 33.005859 31.576172 C 33.005859 33.311584 32.941747 34.889652 32.474609 36.431641 C 31.175632 36.225986 29.577048 35.315628 27.953125 34.238281 C 26.10397 33.011512 24.329167 31.5 22 31.5 C 19.664667 31.5 17.887848 33.021864 16.035156 34.257812 C 14.419653 35.335532 12.827104 36.245094 11.535156 36.460938 C 11.061277 34.908977 11 33.32225 11 31.576172 C 11 30.589254 11.004515 30.65799 11.007812 29.974609 z M 20.890625 35.623047 C 20.951625 35.632047 20.996094 35.683188 20.996094 35.742188 L 20.996094 37.236328 C 20.996094 37.659328 21.359641 38.001953 21.806641 38.001953 L 23.714844 38.001953 C 23.810844 38.001953 23.898313 38.049906 23.945312 38.128906 C 23.993312 38.207906 23.992359 38.305813 23.943359 38.382812 C 23.577359 38.962813 22.814734 40 22.052734 40 C 21.250734 40 20.449375 38.849922 20.109375 38.294922 C 19.999375 38.115922 19.975922 37.899125 20.044922 37.703125 L 20.75 35.703125 C 20.77 35.647125 20.829625 35.613047 20.890625 35.623047 z"/></svg>