<svg fill="#000000" xmlns="http://www.w3.org/2000/svg"  viewBox="0 0 48 48" width="48px" height="48px"><path d="M 11.966797 0.54882812 A 1.50015 1.50015 0 0 0 10.5625 1.7089844 C 10.130982 3.56815 9.2243289 4.4378543 8.1210938 5.4589844 C 7.0178584 6.4801144 5.5312503 7.7580208 5.3652344 9.9335938 C 5.2590037 11.332297 5.7223279 12.416796 6.203125 13.3125 C 0.56346424 19.166839 0.5234375 26.550781 0.5234375 26.550781 A 1.50015 1.50015 0 0 0 2.2324219 28.033203 C 2.2324219 28.033203 3.0462877 27.92103 3.9824219 27.919922 C 4.3170241 27.919526 4.3649716 27.972471 4.6699219 28.023438 C 3.4733402 30.669315 3.1373461 33.535642 3.0253906 35.460938 A 1.50015 1.50015 0 0 0 4.21875 37.017578 C 6.5615746 37.501933 8.5075274 37.047828 9.9882812 36.357422 C 10.40677 37.255266 11.148151 38.30895 12.375 38.513672 C 13.409565 40.662109 14.928124 42.550029 16.832031 44.003906 L 18.251953 45.089844 C 19.913178 46.358868 21.940957 47.048828 24.023438 47.048828 C 26.105916 47.048828 28.131744 46.358868 29.792969 45.089844 L 31.214844 44.003906 C 33.255151 42.445001 34.851105 40.387358 35.884766 38.044922 C 37.00916 37.982873 37.763968 37.22499 38.25 36.425781 C 38.625354 36.50807 39.028551 36.586994 39.46875 36.640625 C 40.910459 36.816272 42.759687 36.765321 44.640625 35.914062 A 1.50015 1.50015 0 0 0 45.142578 33.548828 C 44.912863 33.291358 44.671492 32.385402 44.4375 31.015625 C 44.279913 30.093119 43.977275 28.985085 43.519531 27.853516 C 45.4112 27.097144 46.84375 26.302734 46.84375 26.302734 A 1.50015 1.50015 0 0 0 47.34375 24.337891 C 47.34375 24.337891 44.340227 18.708634 42.943359 14.568359 C 42.278748 12.597982 41.103635 11.472632 39.859375 10.648438 C 40.217787 10.419959 40.446734 10.194484 40.830078 9.9785156 C 41.916033 9.3667119 43.000046 8.836406 43.824219 8.3164062 A 1.50015 1.50015 0 0 0 43.888672 5.8222656 C 41.172837 3.9021092 38.240151 4.1811603 35.685547 4.7167969 C 34.134676 5.0419757 32.645318 5.3389664 31.158203 5.5058594 C 32.152029 3.8093592 32.496094 2.3359375 32.496094 2.3359375 A 1.50015 1.50015 0 0 0 30.421875 0.67382812 C 28.723226 1.4156659 26.165276 1.4568408 23.492188 1.7265625 C 21.371928 1.9405023 19.085853 2.4128438 17.224609 3.8320312 C 16.483482 3.0011194 15.665522 2.3016452 14.884766 1.8203125 C 13.649183 1.0585815 12.554688 0.64453125 12.554688 0.64453125 A 1.50015 1.50015 0 0 0 11.966797 0.54882812 z M 20.167969 14.392578 C 20.709499 14.804339 21.26034 15.246624 22.142578 15.544922 C 23.732943 16.082648 25.890937 16.186272 28.564453 15.294922 L 28.023438 16.199219 C 28.023438 16.199219 30.023438 16.199219 29.023438 18.199219 C 27.613437 21.029219 27.023438 19.199219 27.023438 19.199219 L 25.023438 22.199219 C 27.023438 21.199219 27.023438 22.199219 26.023438 24.199219 C 28.023438 23.199219 29.023438 24.199219 29.023438 24.199219 L 31.023438 23.199219 C 31.023438 23.199219 27.803438 22.809219 31.023438 21.199219 C 35.023438 19.199219 33.023438 22.199219 33.023438 22.199219 L 35.546875 21.189453 C 36.191258 23.557199 36.106251 26.727827 35.568359 28.689453 L 35.207031 29.974609 C 35.043647 29.874821 34.725446 29.680263 34.328125 29.4375 C 33.911125 29.1835 33.433312 29.048828 32.945312 29.048828 L 30.662109 29.048828 C 30.028109 29.048828 29.409813 29.236891 28.882812 29.587891 C 28.410813 29.901891 27.823 30.292797 27.375 30.591797 C 27.196 30.710797 27.073156 30.897375 27.035156 31.109375 C 26.997156 31.320375 27.047828 31.538891 27.173828 31.712891 C 27.197828 31.745891 27.221141 31.7795 27.244141 31.8125 C 27.492141 32.1535 27.968406 32.234141 28.316406 31.994141 C 28.634111 31.775482 28.781885 31.674388 29.060547 31.482422 L 29.023438 31.798828 C 29.023438 33.041828 29.918437 34.048828 31.023438 34.048828 C 32.128437 34.048828 33.023438 33.041828 33.023438 31.798828 L 33.023438 31.048828 L 33.421875 31.048828 L 34.636719 32.005859 L 33.732422 35.216797 C 33.005354 37.778604 31.481227 40.024791 29.394531 41.619141 L 27.972656 42.705078 C 26.829881 43.578054 25.444958 44.048828 24.023438 44.048828 C 22.601917 44.048828 21.216994 43.578054 20.074219 42.705078 L 20.074219 42.707031 L 18.652344 41.621094 A 1.50015 1.50015 0 0 0 18.652344 41.619141 C 16.566178 40.026085 15.041546 37.778693 14.314453 35.216797 L 14.3125 35.212891 L 13.412109 32.003906 L 14.625 31.048828 L 15.023438 31.048828 L 15.023438 31.798828 C 15.023438 33.041828 15.918437 34.048828 17.023438 34.048828 C 18.128438 34.048828 19.023438 33.041828 19.023438 31.798828 L 18.986328 31.482422 C 19.26499 31.674388 19.412764 31.775482 19.730469 31.994141 C 20.077469 32.234141 20.552781 32.1535 20.800781 31.8125 L 20.873047 31.712891 C 20.999047 31.538891 21.049719 31.320375 21.011719 31.109375 C 20.973719 30.897375 20.850875 30.710797 20.671875 30.591797 C 20.223875 30.292797 19.635062 29.901891 19.164062 29.587891 C 18.637062 29.236891 18.017766 29.048828 17.384766 29.048828 L 15.101562 29.048828 C 14.614562 29.048828 14.13475 29.1835 13.71875 29.4375 C 13.322071 29.67987 13.005893 29.874386 12.841797 29.974609 L 12.480469 28.691406 C 12.010909 26.978259 11.864987 24.333495 12.279297 22.115234 C 13.142925 21.83951 14.251785 21.411411 15.388672 20.736328 C 17.388521 19.548818 19.419023 17.470191 20.167969 14.392578 z M 31.970703 15.464844 C 32.827472 16.396436 33.772425 17.661801 34.484375 18.84375 C 31.997504 19.423223 31.196397 18.875869 32.023438 18.048828 C 30.559669 18.048828 31.238793 16.525952 31.970703 15.464844 z M 14.173828 23.193359 A 1.0001 1.0001 0 0 0 13.6875 25.076172 L 20.541016 28.84375 A 1.0001 1.0001 0 1 0 21.503906 27.091797 L 14.650391 23.324219 A 1.0001 1.0001 0 0 0 14.173828 23.193359 z M 33.988281 23.193359 A 1.0001 1.0001 0 0 0 33.541016 23.324219 L 26.541016 27.171875 A 1.0001 1.0001 0 1 0 27.503906 28.923828 L 34.503906 25.076172 A 1.0001 1.0001 0 0 0 33.988281 23.193359 z M 23.585938 35.050781 C 23.081582 35.002301 22.023438 35.894734 22.023438 36.552734 C 22.023437 37.304734 23.429672 38.336656 23.763672 37.972656 C 24.097672 37.608656 24.121672 35.522813 23.763672 35.132812 C 23.718922 35.084063 23.657988 35.057707 23.585938 35.050781 z M 22.021484 40.048828 C 21.756484 40.048828 21.503406 40.152844 21.316406 40.339844 C 21.128406 40.527844 21.023437 40.782875 21.023438 41.046875 C 21.023438 41.312875 21.129406 41.567859 21.316406 41.755859 C 21.504406 41.943859 21.757437 42.048828 22.023438 42.048828 L 26.089844 42.048828 C 26.337844 42.048828 26.575 41.949438 26.75 41.773438 C 26.925 41.598438 27.023437 41.361281 27.023438 41.113281 L 27.023438 41.039062 C 27.023438 40.491062 26.57925 40.048828 26.03125 40.048828 L 22.021484 40.048828 z"/></svg>