<svg fill="#000000" xmlns="http://www.w3.org/2000/svg"  viewBox="0 0 48 48" width="48px" height="48px"><path d="M 13.017578 3.2050781 C 12.331703 3.2974688 11.710734 3.6722187 11.302734 4.2617188 C 10.758734 5.0507187 10.708828 6.0595312 11.173828 6.8945312 C 11.766828 7.9665313 12.48325 9.5397969 12.90625 11.341797 L 12.898438 11.914062 C 9.7764375 14.671062 9.1688594 18.640938 9.1308594 22.085938 C 5.3828594 24.071938 3.8016875 26.859109 3.1796875 28.412109 C 2.9186875 29.062109 2.9430469 29.799688 3.2480469 30.429688 C 3.5510469 31.058688 4.1092969 31.534328 4.7792969 31.736328 L 6.8730469 32.367188 C 6.2290469 32.906188 5.7224531 33.493531 5.3144531 34.144531 C 5.0864531 34.510531 5.1175312 34.9805 5.3945312 35.3125 C 5.6695313 35.6445 6.1263437 35.762469 6.5273438 35.605469 C 7.5683437 35.198469 8.5164062 35.022031 9.4414062 34.957031 C 9.4714062 35.080031 9.5032969 35.188266 9.5292969 35.322266 C 8.7842969 36.491266 7.1855469 39.359219 7.1855469 42.449219 C 7.1855469 43.224219 7.7772031 43.856594 8.5332031 43.933594 L 8.5 44 L 35.5 44 L 35.5 43.992188 C 35.512 43.993187 35.521203 43.997047 35.533203 43.998047 C 35.556203 43.999047 35.579516 44 35.603516 44 C 36.399516 44 37.063563 43.372359 37.101562 42.568359 C 37.166562 41.170359 36.947516 39.736359 36.603516 38.318359 C 37.211516 38.482359 37.777641 38.673531 38.306641 38.894531 C 38.672641 39.047531 39.095812 38.969313 39.382812 38.695312 C 39.669812 38.422312 39.768812 38.004859 39.632812 37.630859 C 39.395812 36.976859 39.088266 36.382563 38.697266 35.851562 C 39.007266 35.841563 39.302953 35.822359 39.626953 35.818359 C 40.553953 35.808359 41.394312 35.29275 41.820312 34.46875 C 42.245312 33.64475 42.181297 32.660438 41.654297 31.898438 C 40.616297 30.394437 39.53325 29.237734 38.28125 28.302734 C 39.83925 26.962734 42.245109 24.475594 43.912109 20.808594 C 45.243109 17.837594 45.233609 15.004859 45.224609 12.505859 C 45.218609 10.847859 45.211953 9.2822812 45.626953 7.9882812 C 45.867953 7.2352812 45.733438 6.4045781 45.273438 5.7675781 C 44.812438 5.1265781 44.065344 4.7365625 43.277344 4.7265625 C 43.190344 4.7255625 43.105531 4.7246094 43.019531 4.7246094 C 36.320531 4.7246094 31.906344 8.1431562 30.277344 9.6601562 C 29.778344 9.5291562 29.094062 9.3714687 28.289062 9.2304688 C 27.389063 8.2034688 26.573547 6.5404219 26.060547 5.3574219 C 25.984547 5.1814219 25.796422 5.0793281 25.607422 5.1113281 C 25.418422 5.1433281 25.276672 5.3021875 25.263672 5.4921875 C 25.189672 6.5821875 25.329172 7.6287813 25.576172 8.5507812 C 24.648172 7.7387812 23.775469 6.7738125 23.230469 6.1328125 C 23.152469 6.0418125 23.024016 6.0154062 22.916016 6.0664062 C 22.810016 6.1164062 22.750484 6.2326094 22.771484 6.3496094 C 22.938484 7.2786094 23.254484 8.1451094 23.646484 8.9121094 C 23.484484 8.9191094 23.325109 8.9205937 23.162109 8.9335938 C 23.094109 8.8545937 23.025031 8.7762656 22.957031 8.6972656 C 21.010031 6.4702656 18.804703 3.9469844 13.720703 3.2089844 C 13.483203 3.1747344 13.246203 3.1742812 13.017578 3.2050781 z M 42.316406 9.4707031 C 42.226406 10.461703 42.220609 11.471578 42.224609 12.517578 C 42.232609 14.820578 42.242687 17.202172 41.179688 19.576172 C 39.752688 22.713172 37.698422 24.840047 36.357422 25.998047 C 35.551422 25.078047 35.384906 23.963875 35.878906 22.671875 C 36.114906 22.057875 36.033203 21.365313 35.658203 20.820312 C 35.285203 20.278312 34.669719 19.955078 34.011719 19.955078 L 32.53125 19.955078 C 33.93225 15.674078 38.349406 11.668703 42.316406 9.4707031 z M 15.482422 14.451172 C 15.648486 14.440584 15.822328 14.455125 16.001953 14.5 C 16.732953 14.683 16.923562 15.502781 16.976562 16.800781 C 16.991563 17.166781 17.218641 17.489906 17.556641 17.628906 C 17.895641 17.768906 18.283734 17.698219 18.552734 17.449219 C 20.046734 16.076219 22.257953 14.378 23.501953 15 C 24.767953 15.633 25.286141 17.57 25.244141 20 C 25.202141 22.43 24.138672 25 24.138672 25 C 24.138672 25 27.703953 23.986 29.001953 25.5 C 32.000953 29 24.001953 35 24.001953 35 C 23.499953 35.502 22.995031 36.067813 22.457031 36.632812 C 20.488031 38.434812 19.174953 38.774453 18.376953 38.689453 C 17.505953 38.599453 16.954484 37.962359 16.646484 37.443359 C 16.609484 37.381359 16.554813 37.340062 16.507812 37.289062 C 16.498812 37.271062 16.494375 37.256281 16.484375 37.238281 C 15.218375 34.933281 15 33 13 32 C 11 31 8.999 29 9 27 C 9 26.242 9.3625938 25.630156 9.8085938 25.160156 C 9.8555938 25.131156 9.8953594 25.100313 9.9433594 25.070312 C 10.626359 24.648312 11.428516 24.458344 12.228516 24.527344 C 12.314516 24.510344 12.386266 24.504953 12.447266 24.501953 C 12.619266 24.790953 12.837125 24.970703 13.078125 24.970703 C 13.623125 24.970703 14.064453 24.078516 14.064453 22.978516 C 14.064453 21.878516 13.623125 20.988281 13.078125 20.988281 C 12.624125 20.988281 12.245859 21.609172 12.130859 22.451172 C 12.128859 20.476172 12.303703 18.413672 13.095703 16.638672 C 13.496453 15.833672 14.319971 14.525287 15.482422 14.451172 z M 19.150391 20.988281 C 18.605391 20.988281 18.162109 21.878516 18.162109 22.978516 C 18.162109 24.078516 18.605391 24.970703 19.150391 24.970703 C 19.695391 24.970703 20.136719 24.078516 20.136719 22.978516 C 20.136719 21.878516 19.695391 20.988281 19.150391 20.988281 z M 14.273438 25.839844 C 13.828547 25.856766 13.338016 25.899719 12.822266 25.980469 L 12.572266 26.339844 C 12.282266 26.758844 12.353281 27.328109 12.738281 27.662109 L 14.228516 28.957031 C 14.429516 29.132031 14.728687 29.132031 14.929688 28.957031 L 16.539062 27.548828 C 16.909063 27.223828 16.987609 26.678719 16.724609 26.261719 L 16.535156 25.960938 C 16.535156 25.960938 15.608109 25.789078 14.273438 25.839844 z M 22.175781 28.964844 C 21.589781 31.260844 14.173266 30.983937 14.072266 30.960938 C 14.072266 30.960938 15.037359 31.861094 16.568359 32.496094 C 17.851359 33.028094 17.006953 34.944 17.001953 35 C 16.884953 36.236 17.588266 36.960937 19.072266 36.960938 C 22.072266 36.960938 24.199219 31.996094 24.199219 31.996094 C 22.925219 31.607094 22.175781 28.964844 22.175781 28.964844 z"/></svg>