<svg fill="#000000" xmlns="http://www.w3.org/2000/svg"  viewBox="0 0 50 50" width="50px" height="50px"><path d="M 25 4 C 21.285156 4 15.222656 5.5 14.15625 10.875 C 12.113281 9.855469 10.164063 9.992188 10.0625 10 C 9.71875 10.023438 9.441406 10.230469 9.28125 10.53125 C 9.121094 10.835938 9.109375 11.171875 9.28125 11.46875 C 9.308594 11.519531 12.144531 16.550781 12.9375 22.53125 C 9.699219 24.984375 9 28.570313 9 31.21875 C 9 35.996094 13.359375 39.082031 13.78125 39.375 C 15.457031 40.820313 19.460938 42.046875 19.625 42.09375 L 20.53125 42.375 C 22.070313 44.035156 24.78125 45.972656 29.375 47.1875 L 29.84375 47.3125 C 30.136719 47.386719 30.449219 47.328125 30.695313 47.144531 C 30.9375 46.960938 31.085938 46.679688 31.09375 46.375 L 31.125 45.90625 C 31.285156 41.65625 31.90625 39.152344 32.25 38 C 32.6875 37.949219 33.101563 37.914063 33.75 37.78125 C 34.667969 37.59375 35.652344 37.292969 36.46875 36.6875 L 36.46875 36.71875 C 36.488281 36.707031 36.511719 36.699219 36.53125 36.6875 C 36.542969 36.679688 36.550781 36.664063 36.5625 36.65625 C 42.84375 32.667969 44.96875 24.25 44.96875 24.25 C 45.058594 23.921875 44.976563 23.570313 44.746094 23.316406 C 44.519531 23.066406 44.179688 22.945313 43.84375 23 C 43.671875 23.03125 43.507813 23.105469 43.375 23.21875 C 43.375 23.21875 38.859375 26.902344 33 28.4375 C 32.871094 27.355469 32.523438 26.167969 31.96875 25 C 30.960938 22.871094 29.578125 21.3125 28.21875 20.71875 C 28.144531 20.558594 28.054688 20.40625 27.96875 20.25 C 27.867188 20.210938 27.773438 20.167969 27.6875 20.09375 C 27.28125 19.734375 25.539063 19.808594 25.125 20.15625 C 24.941406 20.308594 24.746094 20.40625 24.53125 20.40625 C 24.246094 20.40625 23.949219 20.273438 23.75 20.03125 C 23.394531 19.605469 23.480469 18.949219 23.90625 18.59375 C 24.027344 18.492188 24.675781 18 26 18 C 26.179688 18 26.367188 18.003906 26.53125 18 C 27.046875 17.992188 27.570313 17.972656 28.0625 18.09375 C 28.121094 18.03125 28.179688 17.972656 28.25 17.90625 C 27.363281 16.992188 26.230469 16.246094 24.8125 15.96875 C 24.269531 15.863281 23.925781 15.355469 24.03125 14.8125 C 24.136719 14.269531 24.644531 13.921875 25.1875 14.03125 C 31.277344 15.21875 32.644531 21.679688 32.90625 23 C 32.90625 23.800781 33.796875 24.058594 34.15625 24 C 34.601563 23.929688 34.949219 23.574219 35 23.125 C 35.011719 23.007813 35.207031 20.984375 34.78125 18.9375 C 36.164063 19.769531 37.328125 20.765625 37.34375 20.78125 C 37.652344 21.039063 38.078125 21.089844 38.4375 20.90625 C 38.792969 20.722656 39.027344 20.335938 39 19.9375 C 38.988281 19.746094 38.660156 16.066406 34.46875 12.625 C 35.207031 12.800781 35.707031 12.964844 35.71875 12.96875 C 36.113281 13.085938 36.5625 12.925781 36.8125 12.59375 C 37.066406 12.261719 37.066406 11.820313 36.84375 11.46875 C 36.703125 11.246094 33.339844 6 28 6 C 26.761719 6 25.597656 6.179688 24.53125 6.4375 C 24.835938 6.238281 25.132813 6.058594 25.4375 5.90625 C 25.851563 5.699219 26.074219 5.234375 25.96875 4.78125 C 25.863281 4.328125 25.464844 4 25 4 Z M 20.0625 18.25 C 20.859375 18.203125 21.515625 18.375 21.625 18.40625 C 22.15625 18.550781 22.460938 19.09375 22.3125 19.625 C 22.167969 20.15625 21.625 20.464844 21.09375 20.3125 C 20.851563 20.25 20.011719 20.132813 19.5 20.40625 C 17.992188 21.207031 17.9375 22.957031 17.9375 23.03125 C 17.929688 23.578125 17.484375 24.03125 16.9375 24.03125 C 16.386719 24.027344 15.9375 23.582031 15.9375 23.03125 C 15.9375 22.910156 15.984375 20.03125 18.5625 18.65625 C 19.050781 18.394531 19.585938 18.277344 20.0625 18.25 Z M 27.09375 22.4375 C 27.75 22.515625 29.09375 23.601563 30.15625 25.84375 C 30.648438 26.878906 30.945313 27.914063 31.03125 28.8125 C 30.988281 28.820313 30.949219 28.835938 30.90625 28.84375 C 30.921875 28.644531 30.871094 28.398438 30.71875 28.03125 C 30.171875 26.726563 29.21875 25.863281 28.59375 26.125 C 28.359375 26.222656 28.199219 26.449219 28.125 26.78125 C 27.988281 26.550781 27.875 26.324219 27.71875 26.09375 C 27.34375 25.535156 26.925781 25.03125 26.5 24.5625 C 26.496094 24.535156 26.535156 24.496094 26.53125 24.46875 C 26.371094 23.34375 26.554688 22.605469 26.84375 22.46875 C 26.90625 22.441406 27 22.425781 27.09375 22.4375 Z M 21.5 23.75 C 22.625 23.75 24.546875 24.929688 26.0625 27.1875 C 26.78125 28.257813 27.257813 29.316406 27.5 30.25 C 27.503906 30.269531 27.496094 30.292969 27.5 30.3125 C 27.507813 30.355469 27.519531 30.398438 27.53125 30.4375 C 27.847656 31.816406 27.652344 32.917969 27.0625 33.3125 C 26.871094 33.441406 26.652344 33.5 26.375 33.5 C 26.070313 33.5 25.710938 33.417969 25.3125 33.25 C 25.578125 33.277344 25.800781 33.234375 25.96875 33.09375 C 26.53125 32.613281 26.195313 31.242188 25.1875 30.0625 C 24.179688 28.882813 22.875 28.332031 22.3125 28.8125 C 21.84375 29.214844 22.035156 30.210938 22.6875 31.21875 C 22.382813 30.871094 22.097656 30.484375 21.8125 30.0625 C 20.933594 28.753906 20.367188 27.378906 20.21875 26.15625 C 20.089844 25.097656 20.285156 24.304688 20.78125 23.96875 C 20.972656 23.839844 21.222656 23.75 21.5 23.75 Z M 41.875 26.5625 C 40.84375 29.140625 39.074219 32.746094 35.40625 35.03125 C 35.382813 35.050781 35.363281 35.070313 35.34375 35.09375 C 35.019531 35.347656 34.160156 35.644531 33.34375 35.8125 C 32.527344 35.980469 31.769531 36.042969 31.34375 36.09375 C 30.953125 36.136719 30.621094 36.40625 30.5 36.78125 C 30.191406 37.722656 29.476563 40.632813 29.21875 45 C 23.914063 43.417969 21.667969 40.917969 21 39.71875 C 20.8125 39.375 20.441406 39.175781 20.054688 39.199219 C 19.664063 39.226563 19.324219 39.480469 19.1875 39.84375 C 17.933594 39.40625 16.125 38.667969 15.21875 37.96875 C 14.898438 36.859375 15.15625 35.464844 15.90625 34.40625 C 16.292969 33.859375 17.765625 32.0625 20.53125 32.0625 C 20.609375 32.0625 20.675781 32.050781 20.75 32.03125 C 22.4375 34.167969 24.578125 35.5 26.375 35.5 C 27.054688 35.5 27.664063 35.320313 28.1875 34.96875 C 29.335938 34.195313 29.820313 32.753906 29.65625 31.03125 C 35.3125 30.636719 39.378906 28.253906 41.875 26.5625 Z M 29 26.96875 C 29.261719 26.890625 29.570313 27.160156 29.6875 27.5625 C 29.804688 27.964844 29.699219 28.359375 29.4375 28.4375 C 29.175781 28.515625 28.867188 28.246094 28.75 27.84375 C 28.632813 27.441406 28.738281 27.046875 29 26.96875 Z M 23.125 30.0625 C 23.402344 30.066406 23.730469 30.300781 23.96875 30.65625 C 24.289063 31.128906 24.320313 31.648438 24.03125 31.84375 C 23.742188 32.039063 23.226563 31.816406 22.90625 31.34375 C 22.585938 30.871094 22.585938 30.351563 22.875 30.15625 C 22.949219 30.105469 23.03125 30.0625 23.125 30.0625 Z M 21.375 35.0625 C 20.875 35.105469 20.292969 35.261719 19.71875 35.71875 C 19.023438 36.273438 19.03125 37.375 19.03125 37.375 C 19.03125 37.375 20.121094 36.929688 20.6875 36.71875 C 21.496094 36.71875 22.695313 38.773438 24.03125 40.34375 C 25.316406 41.851563 27.96875 42.875 27.96875 42.875 C 27.941406 39.410156 28.96875 36.78125 28.96875 36.78125 C 28.96875 36.78125 28.496094 36.875 26.375 36.875 C 24.253906 36.875 21.6875 36.433594 21.6875 36.125 L 22.8125 35.28125 C 22.8125 35.28125 22.207031 34.992188 21.375 35.0625 Z M 23.84375 37.53125 C 23.875 37.515625 23.890625 37.523438 23.9375 37.53125 C 24.605469 37.617188 25.1875 38.34375 25.1875 38.34375 C 25.1875 38.34375 25.296875 37.792969 25.6875 37.875 C 26.535156 38.050781 26.375 40.625 26.375 40.625 C 26.375 40.625 25.292969 40.417969 24.40625 39.21875 C 24.121094 38.832031 24.015625 38.714844 23.8125 38.40625 C 23.726563 38.277344 23.617188 37.648438 23.84375 37.53125 Z"/></svg>